HIERARCHY
ROOT root
{
	OFFSET 0.000000 0.000000 0.000000
	CHANNELS 6 Xposition Yposition Zposition Zrotation Yrotation Xrotation
	JOINT lhip
	{
		OFFSET 0.058581 -0.082280 -0.017664
		CHANNELS 3 Zrotation Yrotation Xrotation
		JOINT lknee
		{
			OFFSET 0.043451 -0.386469 0.008037
			CHANNELS 3 Zrotation Yrotation Xrotation
			JOINT lankle
			{
				OFFSET -0.014790 -0.426874 -0.037428
				CHANNELS 3 Zrotation Yrotation Xrotation
				JOINT ltoe
				{
					OFFSET 0.041054 -0.060286 0.122042
					CHANNELS 3 Zrotation Yrotation Xrotation
					End Site
					{
						OFFSET 0.000000 0.000000 0.000000
					}
				}
			}
		}
	}
	JOINT rhip
	{
		OFFSET -0.060310 -0.090513 -0.013543
		CHANNELS 3 Zrotation Yrotation Xrotation
		JOINT rknee
		{
			OFFSET -0.043257 -0.383688 -0.004843
			CHANNELS 3 Zrotation Yrotation Xrotation
			JOINT rankle
			{
				OFFSET 0.019056 -0.420046 -0.034562
				CHANNELS 3 Zrotation Yrotation Xrotation
				JOINT rtoe
				{
					OFFSET -0.034840 -0.062106 0.130323
					CHANNELS 3 Zrotation Yrotation Xrotation
					End Site
					{
						OFFSET 0.000000 0.000000 0.000000
					}
				}
			}
		}
	}
	JOINT lowerback
	{
		OFFSET 0.004439 0.124404 -0.038385
		CHANNELS 3 Zrotation Yrotation Xrotation
		JOINT upperback
		{
			OFFSET 0.004488 0.137956 0.026820
			CHANNELS 3 Zrotation Yrotation Xrotation
			JOINT chest
			{
				OFFSET -0.002265 0.056032 0.002855
				CHANNELS 3 Zrotation Yrotation Xrotation
				JOINT lowerneck
				{
					OFFSET -0.013390 0.211636 -0.033468
					CHANNELS 3 Zrotation Yrotation Xrotation
					JOINT upperneck
					{
						OFFSET 0.010113 0.088937 0.050410
						CHANNELS 3 Zrotation Yrotation Xrotation
						End Site
						{
							OFFSET 0.000000 0.000000 0.000000
						}
					}
				}
				JOINT lclavicle
				{
					OFFSET 0.071702 0.114000 -0.018898
					CHANNELS 3 Zrotation Yrotation Xrotation
					JOINT lshoulder
					{
						OFFSET 0.122921 0.045205 -0.019046
						CHANNELS 3 Zrotation Yrotation Xrotation
						JOINT lelbow
						{
							OFFSET 0.255332 -0.015649 -0.022946
							CHANNELS 3 Zrotation Yrotation Xrotation
							JOINT lwrist
							{
								OFFSET 0.265709 0.012698 -0.007375
								CHANNELS 3 Zrotation Yrotation Xrotation
								End Site
								{
									OFFSET 0.000000 0.000000 0.000000
								}
							}
						}
					}
				}
				JOINT rclavicle
				{
					OFFSET -0.082954 0.112472 -0.023707
					CHANNELS 3 Zrotation Yrotation Xrotation
					JOINT rshoulder
					{
						OFFSET -0.113228 0.046853 -0.008472
						CHANNELS 3 Zrotation Yrotation Xrotation
						JOINT relbow
						{
							OFFSET -0.260127 -0.014369 -0.031269
							CHANNELS 3 Zrotation Yrotation Xrotation
							JOINT rwrist
							{
								OFFSET -0.269108 0.006794 -0.006027
								CHANNELS 3 Zrotation Yrotation Xrotation
								End Site
								{
									OFFSET 0.000000 0.000000 0.000000
								}
							}
						}
					}
				}
			}
		}
	}
}
MOTION
Frames: 17
Frame Time: 0.033333
-1.730766 0.244636 0.980493 77.798570 -1.495859 93.042269 -0.944569 -5.912402 -23.494938 -3.617812 1.456802 5.345768 2.725915 7.985107 0.273777 0.000000 -0.000000 0.000000 -3.708215 -2.826649 3.483957 1.286632 4.151746 25.924097 6.167162 -1.386140 -15.409918 0.000000 -0.000000 0.000000 -0.956644 7.709763 13.821218 0.124441 1.444955 1.336615 0.184019 4.737980 1.834066 -0.346404 6.949275 -11.457530 -3.333574 -4.199829 4.799961 -28.044081 7.622749 -3.030365 -53.880627 3.222634 12.046645 8.263275 -32.364396 6.992406 3.173379 -3.274753 -5.644625 31.755939 7.163212 2.922568 49.985243 17.900824 9.483929 -14.468558 5.370020 -14.741829 0.469684 1.524675 -1.451463 
-1.704893 0.248424 0.982056 77.766585 -2.207000 92.524238 -1.537417 -7.691777 -23.236870 -4.599741 0.383890 9.204879 4.358372 8.476257 -1.320701 0.000000 -0.000000 0.000000 -4.664427 -1.937137 2.828557 1.272482 4.866482 30.638285 7.584727 -1.805050 -12.188661 0.000000 -0.000000 0.000000 -2.224445 8.333720 14.115337 -0.270308 1.663722 1.050649 -0.107113 4.679570 1.999100 0.289833 6.614017 -12.243892 -2.658047 -4.497678 4.522910 -27.639358 7.329034 -2.987667 -53.514506 3.564919 12.164732 9.011302 -31.917554 5.948883 3.488201 -2.916214 -5.680010 32.122247 7.798449 2.488755 49.688809 17.938822 9.993997 -14.455322 5.605563 -16.409367 0.369277 1.228859 -2.771686 
-1.677214 0.251089 0.985026 78.192198 -2.438210 91.199256 -2.524174 -8.442014 -21.580574 -4.964210 -0.424339 12.108802 5.538257 9.002833 -3.142565 0.000000 -0.000000 0.000000 -4.790618 -1.103691 2.267479 1.085850 5.284393 36.188629 9.289030 -1.700360 -5.940296 0.000000 -0.000000 0.000000 -2.988461 8.417195 14.728519 -0.506822 1.895187 1.550053 -0.321563 4.775857 1.873115 0.693909 5.443627 -12.527758 -2.158578 -4.600571 3.885992 -27.668880 6.623462 -3.272130 -52.843628 3.742590 11.999822 9.414525 -30.972249 5.317350 3.807888 -3.406185 -5.624175 32.009146 8.614175 2.393270 49.662203 18.001498 10.244391 -14.676041 6.315430 -18.360656 0.033922 1.159880 -4.429077 
-1.648266 0.253208 0.987393 79.456795 -2.158794 90.354277 -3.868626 -8.705727 -19.564124 -4.985686 -1.740250 13.388552 7.239550 10.033388 -4.276429 0.000000 -0.000000 0.000000 -4.235151 -0.430038 0.449506 0.945879 4.681332 42.560749 10.502199 -2.597407 2.489301 0.000000 -0.000000 0.000000 -3.689801 7.903166 14.506068 -0.414779 2.284663 1.227652 -0.354987 4.553175 2.101304 1.397957 4.295469 -12.102108 -1.330041 -4.346075 3.900077 -27.572643 6.390385 -3.343475 -52.348143 3.901053 12.039135 9.985068 -30.820444 4.744366 3.849840 -3.391984 -5.363037 31.987090 8.664029 1.809040 49.599710 17.925148 10.712342 -14.730021 6.686368 -19.960384 -0.086894 1.101194 -5.695350 
-1.619652 0.254982 0.988910 81.064576 -1.900080 89.407337 -5.213459 -8.906646 -16.816193 -5.038338 -3.512582 14.149310 9.404449 11.063119 -5.941914 0.000000 -0.000000 0.000000 -3.659685 0.349755 -1.680038 1.371175 4.185509 49.062332 10.221244 -4.031184 8.935102 0.000000 -0.000000 0.000000 -4.342391 6.990730 14.795641 -0.316889 2.326091 0.311380 -0.515077 4.159263 2.152430 2.143717 3.387574 -11.424484 -1.213446 -4.020945 4.639601 -27.390106 6.765985 -3.366918 -51.621199 3.909651 11.500098 9.991171 -31.509589 4.894976 3.068073 -3.512972 -5.393876 31.861735 8.338710 1.078481 49.951779 17.676506 11.329296 -15.045607 7.664004 -21.046286 0.540626 1.075825 -6.687768 
-1.593627 0.256451 0.991041 83.356871 -1.796171 88.359564 -6.285354 -8.561663 -13.937305 -5.612000 -5.674258 14.400522 10.028924 11.016863 -7.184296 0.000000 -0.000000 0.000000 -3.168713 0.883512 -4.432424 1.450011 2.663799 56.157728 7.489981 -8.702395 11.336616 0.000000 -0.000000 0.000000 -4.948192 5.915900 14.299320 -0.021602 2.314153 1.265228 -0.770087 3.386705 2.257996 2.979382 2.611184 -11.891124 -1.592596 -4.542259 4.895273 -27.585243 6.241234 -3.212082 -50.713338 2.712940 11.126835 10.222826 -32.100602 3.954533 2.839115 -2.774240 -6.164151 31.863897 8.476469 0.104750 49.411243 17.747560 11.777987 -15.275994 8.783694 -22.272451 1.169994 0.918126 -7.775545 
-1.568105 0.257665 0.994129 85.355491 -1.505464 87.238692 -6.915623 -7.447692 -10.624361 -5.986484 -7.821669 13.973841 9.193568 10.546894 -8.524317 0.000000 -0.000000 0.000000 -2.604087 1.294811 -6.921033 1.171910 0.929136 61.062461 6.840871 -8.818656 5.545992 0.000000 -0.000000 0.000000 -5.070563 4.717881 14.886864 -0.149144 2.042227 0.479984 -1.083568 3.121139 2.091728 3.402456 2.882551 -10.931524 -1.250536 -5.021162 5.887542 -26.995201 5.362745 -2.816981 -50.688400 2.266422 10.957827 10.994521 -32.323953 2.651859 3.180906 -2.779234 -5.940305 31.813395 8.658823 -0.289832 49.244542 16.952301 11.247978 -15.657094 9.782140 -22.728264 2.104145 1.709059 -9.315995 
-1.544415 0.259136 0.997332 87.649701 -1.050304 86.113422 -7.326419 -6.535099 -7.205395 -5.994707 -9.940496 13.260901 8.692245 10.186133 -9.545259 0.000000 -0.000000 0.000000 -1.931718 1.683106 -9.167425 -0.094466 -0.942346 63.196759 5.488126 -10.607597 1.949937 0.000000 -0.000000 0.000000 -4.898844 3.530794 15.196971 -0.073566 1.890559 0.284996 -1.119297 2.469774 2.267478 3.673781 2.684235 -10.361393 -1.728415 -5.477231 6.462124 -26.730811 4.479362 -2.715325 -50.934729 0.843859 10.464630 11.597664 -32.221522 2.009134 2.696863 -3.320662 -5.890123 31.380536 8.707700 -0.832781 48.996536 16.533315 10.753829 -16.031328 10.761438 -23.171166 2.663193 2.023950 -10.178930 
-1.521143 0.260778 0.999958 89.856904 -0.605973 85.486609 -7.570971 -5.448584 -4.394439 -5.877602 -12.003899 12.465941 8.326863 9.808930 -10.445426 0.000000 -0.000000 0.000000 -1.604514 1.984822 -12.139584 -0.310130 -1.973126 63.997490 5.007921 -10.933559 -1.988395 0.000000 -0.000000 0.000000 -4.785874 2.096983 15.495982 0.081732 1.583237 -0.710378 -1.156714 1.947520 2.080557 3.885266 2.603083 -9.354479 -2.327630 -5.575766 8.067340 -26.470516 4.331538 -2.604794 -51.169236 -0.356235 10.479592 11.868024 -32.524165 1.885175 2.645455 -3.483727 -5.770145 31.210303 8.048518 -1.179549 48.791336 16.059676 10.496266 -16.311347 11.753316 -23.045582 4.041623 2.773292 -10.852160 
-1.498859 0.263120 1.002305 91.781976 -0.225642 84.703061 -7.955241 -3.792757 -1.288231 -5.294935 -14.581065 11.353449 9.162293 9.062618 -10.600947 0.000000 -0.000000 0.000000 -1.762488 2.041173 -14.829631 -0.682341 -2.731353 62.665947 4.786939 -11.212513 -4.909701 0.000000 -0.000000 0.000000 -4.615059 0.668705 16.083864 0.146059 2.106703 -2.126008 -1.102126 1.250382 2.681208 4.906780 2.819893 -8.439686 -3.907499 -5.990214 8.954926 -25.863347 5.275368 -1.195905 -51.992046 -4.413584 9.660885 11.693706 -32.857896 2.903958 -4.830285 -1.804962 -5.221622 30.904158 6.747183 -2.058816 48.774383 15.635188 9.918333 -16.608112 13.508240 -23.235108 5.669302 2.411079 -8.820061 
-1.477098 0.264902 1.003579 93.528591 0.172602 84.014985 -7.842256 -2.503729 1.693065 -4.961088 -16.531642 10.056061 9.008959 8.568987 -10.996924 0.000000 -0.000000 0.000000 -2.094409 2.275658 -17.392881 -0.964449 -3.427556 59.920711 5.293950 -10.716834 -7.675957 0.000000 -0.000000 0.000000 -4.298276 -0.724063 16.762337 0.303939 1.655920 -2.805126 -1.104307 0.760059 2.113060 5.053516 2.917924 -6.952335 -4.671827 -5.790020 10.021685 -25.552560 4.909584 -0.715254 -52.246010 -5.249422 9.671067 11.710050 -34.324573 2.606955 -4.512439 -1.908865 -4.999081 30.629203 6.577799 -1.781452 49.014576 15.434783 9.678258 -17.181055 14.675944 -23.366119 5.942128 2.880824 -8.659892 
-1.456965 0.266757 1.004391 95.034864 0.653184 83.459940 -7.532393 -1.651904 4.140652 -4.767464 -18.196983 9.398960 8.880372 8.394649 -11.623792 0.000000 -0.000000 0.000000 -2.466552 2.348157 -19.803585 -0.882416 -3.875849 55.789969 5.902682 -9.895106 -9.190106 0.000000 -0.000000 0.000000 -3.772636 -1.811143 17.190957 0.524873 1.350648 -2.875065 -0.929964 0.085310 1.982386 4.798229 3.222999 -7.003144 -5.041028 -5.736406 10.507180 -25.560381 4.458866 -1.250712 -52.437740 -6.406839 10.079847 11.092502 -35.282919 3.134828 -4.301458 -2.261961 -4.365992 30.322586 6.481318 -2.525794 49.188052 15.431758 9.754816 -17.684962 15.748322 -23.293758 6.296110 3.255391 -8.346536 
-1.437342 0.268403 1.004036 96.481790 1.221172 83.215299 -6.987984 -0.785848 5.906585 -4.570526 -19.429995 9.224592 8.644247 7.756189 -13.000092 0.000000 -0.000000 0.000000 -2.884720 2.057078 -22.074187 -0.904755 -4.466244 50.472710 6.557737 -9.194965 -10.006965 0.000000 -0.000000 0.000000 -3.224596 -2.794402 17.448395 0.758115 0.896269 -3.562858 -0.815862 -0.260568 1.607769 4.984988 3.435459 -5.610560 -5.113444 -5.747905 11.449247 -25.039551 3.461783 -0.373580 -53.123899 -7.675690 10.497066 11.239973 -35.821323 2.972596 -3.771242 -2.691693 -4.195473 30.526621 6.311462 -2.441850 48.810175 15.489066 9.668639 -17.763120 16.820966 -23.118715 6.119364 3.575030 -8.161703 
-1.417285 0.269833 1.002515 97.519994 1.727522 82.959180 -6.427264 -0.222900 7.624392 -4.498970 -20.358871 9.377740 8.578831 7.444401 -14.107436 0.000000 -0.000000 0.000000 -3.233427 1.668073 -23.578207 -0.906244 -5.251477 43.951811 6.944056 -9.084135 -9.636782 0.000000 -0.000000 0.000000 -2.752167 -2.948939 17.532421 1.137212 0.985403 -3.526876 -0.131545 -1.412413 1.632247 4.725876 3.263924 -5.568005 -5.954370 -5.376737 11.989261 -25.175608 2.406112 -0.275928 -53.660127 -9.005247 10.918803 10.991983 -36.315453 3.305419 -3.435788 -3.011712 -3.921075 29.927400 6.216561 -2.903136 48.802223 15.789937 9.824736 -18.108634 17.976012 -23.171649 5.841004 3.905594 -8.107360 
-1.396963 0.271050 1.000299 98.259020 1.865808 82.995890 -6.131051 0.392129 9.004475 -4.331146 -20.792940 9.481641 8.633655 6.933745 -14.942018 0.000000 -0.000000 0.000000 -3.636456 0.791066 -24.692100 -1.071096 -6.092562 36.244689 7.774788 -8.469373 -7.462846 0.000000 -0.000000 0.000000 -2.337994 -3.610139 17.801701 1.084613 0.208241 -4.023667 -0.011843 -1.308867 0.963464 4.625276 2.917140 -4.293749 -5.362883 -5.184274 12.607701 -24.673333 2.090817 -0.015245 -54.077067 -9.939254 11.054980 10.391656 -37.077536 3.878575 -3.080601 -2.950579 -3.350484 30.032659 6.228490 -2.419350 49.014108 16.116376 9.743507 -18.494370 18.837231 -22.969120 5.703791 4.197882 -7.463688 
-1.375873 0.272193 0.996870 98.693064 2.004715 83.206252 -5.663542 1.074914 10.315517 -4.485878 -20.801493 9.499542 8.611134 6.836359 -16.396052 0.000000 -0.000000 0.000000 -3.795388 -0.127088 -25.209170 -0.782852 -7.154882 27.711656 8.549110 -8.249016 -5.608262 0.000000 -0.000000 0.000000 -1.967649 -3.541245 17.118259 1.164198 -0.066722 -3.715451 0.342018 -1.840334 1.032065 4.600066 2.604537 -3.963967 -4.854042 -5.323217 12.910682 -24.484886 1.087539 0.246044 -54.604112 -11.167086 11.381534 10.387756 -37.391624 3.964748 -2.753538 -3.561890 -3.140866 29.814486 6.463476 -2.464445 48.916568 16.723730 9.661704 -18.575617 19.166003 -22.508687 5.307965 4.113501 -7.071483 
-1.353723 0.273076 0.992643 99.169629 2.134529 83.763100 -5.292235 1.767197 11.425343 -4.314091 -20.939131 9.351899 7.798930 6.248716 -18.043603 0.000000 -0.000000 0.000000 -3.675177 -1.148816 -25.298189 -0.321144 -8.379399 18.703352 9.701658 -7.816862 -3.708199 0.000000 -0.000000 0.000000 -1.392847 -3.578138 16.505030 1.027598 -0.390692 -3.931924 0.575838 -2.254172 0.885853 4.354795 2.464042 -3.273688 -4.271196 -5.143296 13.142057 -24.326481 0.300673 0.703504 -54.927918 -11.984205 11.551169 10.186553 -37.907434 4.244412 -2.572708 -3.613261 -2.383760 29.500593 6.607610 -2.374987 49.059272 16.927844 9.485853 -18.616148 19.465623 -21.851242 5.279099 4.407656 -6.253961 
